<svg width="40" height="40" viewBox="0 0 40 40" fill="none" xmlns="http://www.w3.org/2000/svg">
<rect width="40" height="40" rx="20" fill="#2B2B2B"/>
<path d="M31.5789 12.0508C31.5776 11.7873 31.5196 11.5274 31.4108 11.2886C31.2367 10.8958 30.9296 10.5793 30.5476 10.3959C27.466 8.99335 24.2865 7.82232 21.0368 6.89528C20.1918 6.68471 19.3177 7.11445 18.9538 7.91976C18.1353 9.89606 17.3809 11.8465 16.716 13.7183C16.0523 15.59 15.4067 17.5798 14.807 19.6351L14.8082 19.6363C14.7587 19.7927 14.7357 19.9565 14.7369 20.1215C14.7478 20.8258 15.1431 21.4649 15.7621 21.7764L16.6192 22.1446H16.6204C16.6241 22.1446 16.6265 22.1471 16.6265 22.1508C16.6495 22.1631 16.6736 22.1742 16.6978 22.184C16.716 22.1951 16.7353 22.2037 16.7559 22.2099L17.0267 22.3281C17.0375 22.3355 17.0508 22.3404 17.0653 22.3416L17.0714 22.3478C18.0857 22.8194 18.5802 24.0015 18.2127 25.074C17.9092 26.0086 17.5223 26.9148 17.0581 27.7792L16.994 27.8913C16.2843 29.0795 15.4018 30.5572 15.808 31.7393C16.0498 32.3451 16.5552 32.8007 17.1742 32.9743C17.4691 33.0876 17.7811 33.1492 18.0966 33.1578C18.4146 33.1615 18.7265 33.074 18.9997 32.9078C20.0503 32.2638 20.3018 30.5572 20.4952 29.1781L20.5145 29.0537C20.7007 28.0846 20.9703 27.1353 21.3209 26.2167C21.7259 25.1405 22.8708 24.5593 23.9577 24.877L24.2224 24.9558C24.2611 24.9644 24.2998 24.9755 24.3385 24.9878L24.6734 25.0925C24.8994 25.1577 25.0989 25.2242 25.279 25.2759V25.2772C26.1253 25.4889 26.9982 25.0543 27.356 24.2465C28.1818 22.2764 28.9362 20.3258 29.5999 18.4543C30.2636 16.5828 30.9092 14.5864 31.5088 12.5375L31.5076 12.5363C31.5536 12.3786 31.5777 12.2149 31.579 12.0511L31.5789 12.0508ZM25.7118 24.0624V24.0612C25.6767 24.0637 25.6416 24.06 25.6078 24.0489C24.0156 23.6019 22.4222 23.0835 20.8818 22.5122C19.3404 21.9408 17.7869 21.3104 16.2719 20.6208C16.0543 20.494 15.9431 20.2391 15.9938 19.9904C17.1472 16.0573 18.5194 12.1936 20.1018 8.41814C20.2142 8.19034 20.462 8.0672 20.7074 8.11646C22.2936 8.56959 23.8798 9.08184 25.4334 9.65318C26.9871 10.2245 28.5345 10.8611 30.0371 11.5507C30.256 11.6726 30.3696 11.9275 30.3152 12.175C29.1679 16.1115 27.7982 19.9768 26.2144 23.7532C26.1129 23.9404 25.9206 24.0574 25.7115 24.0598L25.7118 24.0624ZM17.5488 30.6229V30.6217C17.5863 30.5146 17.6661 30.4271 17.7677 30.3791C17.8257 30.3508 17.8898 30.3348 17.9551 30.3335C18.0034 30.336 18.0506 30.3446 18.0965 30.3594C18.2041 30.3988 18.2924 30.4813 18.3407 30.5872C18.3891 30.6931 18.3939 30.815 18.354 30.9246C18.2706 31.1475 18.0288 31.2644 17.8064 31.1869C17.6976 31.1475 17.6093 31.065 17.5609 30.9591C17.5126 30.8519 17.5077 30.73 17.5489 30.6205L17.5488 30.6229ZM27.7417 16.966C27.8119 17.1335 27.7345 17.3256 27.5713 17.397C27.4069 17.4684 27.2183 17.3896 27.1481 17.2234L24.428 10.6837C24.3591 10.5163 24.4352 10.3242 24.5996 10.2528C24.7641 10.1826 24.9526 10.2602 25.0228 10.4276L27.7417 16.966ZM28.7597 15.0008C28.8298 15.1683 28.7525 15.3616 28.5892 15.4318C28.4248 15.5032 28.2362 15.4244 28.1661 15.2569L26.5957 11.4815V11.4827C26.5255 11.3152 26.6029 11.1232 26.7661 11.0517C26.9305 10.9803 27.1191 11.0591 27.1893 11.2254L28.7597 15.0008Z" fill="url(#paint0_linear_11_180)"/>
<g clip-path="url(#clip0_11_180)">
<path d="M20.822 15.9654L20.7034 15.936H20.5813C20.4456 15.936 19.6637 15.9056 18.9483 15.4856C18.3145 15.1135 17.6129 14.3738 17.6129 12.6627C17.6129 11.9831 17.0562 11.4296 16.3792 11.4296C15.7017 11.4296 15.1461 11.9853 15.1461 12.6627C15.1461 14.3742 14.4441 15.1143 13.8118 15.4863C13.0981 15.9062 12.3204 15.936 12.1954 15.936C11.9799 15.936 11.6967 15.9952 11.4494 16.1898C11.3453 16.2653 11.277 16.3421 11.2412 16.385C11.2372 16.3898 11.2332 16.3947 11.2294 16.3995L11.1557 16.4755L11.0871 16.6117C10.908 16.9671 10.9093 17.3888 11.085 17.7412C11.3057 18.1847 11.7637 18.4212 12.1954 18.4212H12.2132C12.3482 18.4212 13.1249 18.4515 13.8353 18.8705C14.4644 19.2416 15.1639 19.9811 15.1639 21.6945C15.1639 22.371 15.7174 22.9282 16.3976 22.9282C17.0788 22.9282 17.6307 22.3693 17.6307 21.6945C17.6307 19.9915 18.3288 19.2504 18.9605 18.8762C19.6728 18.4544 20.4509 18.4212 20.5813 18.4212C21.1121 18.4212 21.4459 18.0975 21.5982 17.8933L21.6523 17.8208L21.6925 17.7398C21.8624 17.3972 21.8868 16.9312 21.6267 16.5304C21.4911 16.3076 21.3089 16.1776 21.1847 16.1076C21.043 16.0277 20.909 15.987 20.822 15.9654Z" fill="url(#paint1_linear_11_180)" stroke="#2B2B2B" stroke-width="2"/>
<path d="M11.3513 20.0071C11.136 20.0071 9.19686 19.9353 9.19686 17.6728C9.19686 17.5471 9.08891 17.4391 8.96374 17.4391C8.83798 17.4391 8.73003 17.5465 8.73003 17.6728C8.73003 19.9353 6.79096 20.0071 6.5756 20.0071H6.5578C6.43147 20.0249 6.34189 20.1144 6.34189 20.2402C6.34189 20.3659 6.44984 20.4739 6.57559 20.4739C6.80929 20.4739 8.73002 20.5457 8.73002 22.8081C8.73002 22.9339 8.83798 23.0418 8.96372 23.0418C9.07167 23.0774 9.17905 22.97 9.17905 22.8265C9.17905 20.564 11.1181 20.4923 11.3335 20.4923H11.3513C11.477 20.4923 11.585 20.3849 11.585 20.2408C11.585 20.1144 11.477 20.0071 11.3513 20.0071Z" fill="url(#paint2_linear_11_180)"/>
<path d="M13.4162 12.3935C13.542 12.3935 13.6499 12.2855 13.6499 12.142C13.6499 12.0162 13.5419 11.9089 13.4162 11.9089C13.2009 11.9089 11.2618 11.8371 11.2618 9.57464C11.2618 9.44889 11.1538 9.34094 11.0281 9.34094C10.9023 9.34094 10.7949 9.4489 10.7949 9.57464C10.7949 11.8371 8.85586 11.9089 8.64051 11.9089H8.6227C8.49695 11.9267 8.40738 12.0162 8.40738 12.142C8.40738 12.2677 8.51533 12.3757 8.64108 12.3757C8.87478 12.3757 10.7955 12.4475 10.7955 14.7099C10.7955 14.8357 10.9029 14.9436 11.0286 14.9436C11.1366 14.9614 11.244 14.854 11.244 14.7283C11.244 12.4658 13.183 12.3941 13.3984 12.3941L13.4162 12.3935Z" fill="url(#paint3_linear_11_180)"/>
</g>
<defs>
<linearGradient id="paint0_linear_11_180" x1="30.3873" y1="12.5987" x2="13.8734" y2="14.3226" gradientUnits="userSpaceOnUse">
<stop stop-color="#D9E4F5"/>
<stop offset="1" stop-color="#F5E3E6"/>
</linearGradient>
<linearGradient id="paint1_linear_11_180" x1="20.194" y1="14.5074" x2="11.6028" y2="15.8158" gradientUnits="userSpaceOnUse">
<stop stop-color="#D9E4F5"/>
<stop offset="1" stop-color="#F5E3E6"/>
</linearGradient>
<linearGradient id="paint2_linear_11_180" x1="11.214" y1="18.6662" x2="6.13511" y2="19.4406" gradientUnits="userSpaceOnUse">
<stop stop-color="#D9E4F5"/>
<stop offset="1" stop-color="#F5E3E6"/>
</linearGradient>
<linearGradient id="paint3_linear_11_180" x1="13.279" y1="10.5669" x2="8.2008" y2="11.3418" gradientUnits="userSpaceOnUse">
<stop stop-color="#D9E4F5"/>
<stop offset="1" stop-color="#F5E3E6"/>
</linearGradient>
<clipPath id="clip0_11_180">
<rect width="14.7" height="14.7" fill="white" transform="translate(6.23158 8.86316)"/>
</clipPath>
</defs>
</svg>
