<svg width="64" height="64" viewBox="0 0 64 64" fill="none" xmlns="http://www.w3.org/2000/svg">
<rect width="64" height="64" rx="32" fill="#2B2B2B"/>
<path d="M50.5262 19.2813C50.5242 18.8597 50.4314 18.4439 50.2573 18.0617C49.9787 17.4333 49.4874 16.9269 48.8762 16.6334C43.9455 14.3894 38.8584 12.5157 33.6589 11.0325C32.3068 10.6956 30.9083 11.3832 30.326 12.6716C29.0165 15.8337 27.8095 18.9545 26.7456 21.9493C25.6836 24.944 24.6506 28.1278 23.6912 31.4162L23.6931 31.4182C23.6138 31.6684 23.5771 31.9304 23.579 32.1944C23.5964 33.3214 24.229 34.3439 25.2193 34.8423L26.5908 35.4314H26.5927C26.5985 35.4314 26.6024 35.4354 26.6024 35.4413C26.6391 35.461 26.6778 35.4787 26.7165 35.4945C26.7455 35.5122 26.7765 35.526 26.8094 35.5358L27.2426 35.725C27.2601 35.7368 27.2813 35.7447 27.3045 35.7466L27.3142 35.7565C28.9371 36.5111 29.7283 38.4024 29.1402 40.1184C28.6547 41.6137 28.0357 43.0638 27.2929 44.4468L27.1904 44.6261C26.0549 46.5273 24.6429 48.8915 25.2928 50.7828C25.6797 51.7522 26.4883 52.4811 27.4787 52.7589C27.9506 52.9402 28.4497 53.0387 28.9546 53.0525C29.4633 53.0584 29.9624 52.9185 30.3995 52.6525C32.0805 51.6221 32.4828 48.8915 32.7923 46.6849L32.8233 46.486C33.1211 44.9354 33.5525 43.4165 34.1135 41.9467C34.7615 40.2248 36.5933 39.2949 38.3323 39.8032L38.7559 39.9293C38.8178 39.9431 38.8797 39.9608 38.9416 39.9805L39.4774 40.1479C39.8391 40.2524 40.1583 40.3588 40.4465 40.4415V40.4435C41.8005 40.7823 43.1971 40.0869 43.7696 38.7945C45.0908 35.6422 46.2978 32.5212 47.3598 29.5268C48.4217 26.5325 49.4547 23.3383 50.4141 20.06L50.4122 20.058C50.4857 19.8058 50.5244 19.5438 50.5263 19.2818L50.5262 19.2813ZM41.1388 38.4999V38.498C41.0827 38.5019 41.0266 38.496 40.9725 38.4783C38.425 37.7631 35.8755 36.9337 33.4109 36.0195C30.9446 35.1054 28.459 34.0966 26.035 32.9933C25.6868 32.7904 25.5089 32.3826 25.5901 31.9846C27.4355 25.6917 29.631 19.5098 32.1628 13.469C32.3427 13.1046 32.7392 12.9075 33.1319 12.9864C35.6697 13.7114 38.2076 14.531 40.6935 15.4451C43.1793 16.3593 45.6553 17.3778 48.0594 18.4811C48.4095 18.6762 48.5914 19.084 48.5043 19.48C46.6686 25.7785 44.477 31.9629 41.943 38.0052C41.7806 38.3046 41.473 38.4918 41.1384 38.4957L41.1388 38.4999ZM28.0781 48.9967V48.9947C28.1381 48.8233 28.2658 48.6834 28.4283 48.6066C28.5211 48.5613 28.6236 48.5357 28.7281 48.5337C28.8055 48.5376 28.8809 48.5514 28.9544 48.5751C29.1266 48.6381 29.2678 48.7701 29.3451 48.9396C29.4225 49.109 29.4303 49.304 29.3664 49.4794C29.2329 49.836 28.8461 50.0231 28.4902 49.899C28.3161 49.836 28.1749 49.704 28.0975 49.5345C28.0201 49.3631 28.0124 49.1681 28.0782 48.9928L28.0781 48.9967ZM44.3868 27.1457C44.499 27.4136 44.3752 27.721 44.114 27.8353C43.851 27.9495 43.5492 27.8234 43.437 27.5575L39.0847 17.094C38.9745 16.8261 39.0963 16.5187 39.3594 16.4044C39.6225 16.2921 39.9242 16.4163 40.0364 16.6842L44.3868 27.1457ZM46.0155 24.0013C46.1277 24.2693 46.0039 24.5786 45.7428 24.6909C45.4797 24.8051 45.178 24.6791 45.0658 24.4111L42.5531 18.3704V18.3724C42.4409 18.1044 42.5647 17.7971 42.8258 17.6828C43.0889 17.5685 43.3906 17.6946 43.5028 17.9606L46.0155 24.0013Z" fill="white"/>
<g clip-path="url(#clip0_98_388)">
<path d="M34.0949 26.7684C33.9477 26.5228 33.7457 26.3766 33.6007 26.2949C33.4375 26.2028 33.2793 26.154 33.1708 26.1271L33.0522 26.0977H32.9301C32.6704 26.0977 31.2932 26.0458 30.0136 25.2945C28.8155 24.5911 27.5806 23.2104 27.5806 20.2604C27.5806 19.5053 26.9595 18.8874 26.2067 18.8874C25.4541 18.8874 24.8337 19.5078 24.8337 20.2604C24.8337 23.211 23.5984 24.5921 22.4031 25.2954C21.1265 26.0465 19.7562 26.0977 19.5127 26.0977C19.267 26.0977 18.9523 26.1661 18.6825 26.3814C18.5657 26.464 18.4885 26.5504 18.4467 26.6005C18.4354 26.6141 18.4256 26.6263 18.4179 26.6361L18.3438 26.7126L18.2752 26.8488C18.0746 27.2468 18.0756 27.7215 18.2723 28.1171C18.2728 28.1181 18.2733 28.1191 18.2738 28.1201L34.0949 26.7684ZM18.3954 26.6654C18.3921 26.6697 18.393 26.6683 18.3973 26.6629L18.3954 26.6654ZM32.9301 26.874C32.9301 26.874 32.9301 26.874 32.9301 26.874H32.9301Z" fill="#C2DAFF" stroke="#2B2B2B" stroke-width="2"/>
<path d="M18.1621 32.0113C17.8175 32.0113 14.715 31.8965 14.715 28.2766C14.715 28.0754 14.5422 27.9026 14.342 27.9026C14.1408 27.9026 13.968 28.0745 13.968 28.2766C13.968 31.8965 10.8655 32.0113 10.5209 32.0113H10.4925C10.2903 32.0398 10.147 32.1831 10.147 32.3843C10.147 32.5855 10.3197 32.7582 10.5209 32.7582C10.8948 32.7582 13.968 32.8731 13.968 36.493C13.968 36.6942 14.1407 36.8669 14.3419 36.8669C14.5147 36.9239 14.6865 36.7521 14.6865 36.5224C14.6865 32.9024 17.789 32.7876 18.1336 32.7876H18.162C18.3632 32.7876 18.536 32.6158 18.536 32.3852C18.536 32.1831 18.3632 32.0113 18.1621 32.0113Z" fill="#C2DAFF"/>
<path d="M21.4659 19.8296C21.6671 19.8296 21.8398 19.6569 21.8398 19.4272C21.8398 19.226 21.6671 19.0542 21.4659 19.0542C21.1214 19.0542 18.0188 18.9394 18.0188 15.3195C18.0188 15.1183 17.8461 14.9456 17.6449 14.9456C17.4437 14.9456 17.2719 15.1183 17.2719 15.3195C17.2719 18.9394 14.1694 19.0542 13.8248 19.0542H13.7963C13.5951 19.0827 13.4518 19.226 13.4518 19.4272C13.4518 19.6284 13.6245 19.8011 13.8257 19.8011C14.1997 19.8011 17.2728 19.916 17.2728 23.5359C17.2728 23.7371 17.4446 23.9098 17.6458 23.9098C17.8186 23.9383 17.9904 23.7665 17.9904 23.5653C17.9904 19.9453 21.0929 19.8305 21.4374 19.8305L21.4659 19.8296Z" fill="#C2DAFF"/>
</g>
<defs>
<clipPath id="clip0_98_388">
<rect width="23.52" height="23.52" fill="white" transform="translate(9.97052 14.1811)"/>
</clipPath>
</defs>
</svg>
