<svg width="137" height="29" viewBox="0 0 137 29" fill="none" xmlns="http://www.w3.org/2000/svg">
<path d="M1.55825 22.096C1.38758 22.096 1.23825 22.064 1.11025 22C0.98225 21.9147 0.91825 21.7973 0.91825 21.648C0.91825 21.3067 1.14225 21.0827 1.59025 20.976C2.40092 20.8053 2.96625 20.592 3.28625 20.336C3.60625 20.0587 3.76625 19.5787 3.76625 18.896V4.368C3.76625 3.68533 3.62758 3.20533 3.35025 2.928C3.07292 2.62933 2.50758 2.384 1.65425 2.192C1.20625 2.08533 0.98225 1.86133 0.98225 1.52C0.98225 1.37067 1.04625 1.25333 1.17425 1.168C1.30225 1.08267 1.45158 1.04 1.62225 1.04C2.11292 1.04 2.62492 1.05067 3.15825 1.072C3.71292 1.09333 4.24625 1.12533 4.75825 1.168C5.29158 1.18933 5.78225 1.2 6.23025 1.2C6.65692 1.2 7.13692 1.18933 7.67025 1.168C8.22492 1.14667 8.77958 1.12533 9.33425 1.104C9.91025 1.08267 10.4329 1.072 10.9023 1.072C11.0943 1.072 11.2436 1.11467 11.3503 1.2C11.4569 1.264 11.5103 1.37067 11.5103 1.52C11.5103 1.73333 11.4463 1.88266 11.3183 1.968C11.2116 2.05333 11.0409 2.128 10.8063 2.192C9.95292 2.42667 9.38758 2.69333 9.11025 2.992C8.83292 3.26933 8.69425 3.73867 8.69425 4.4V18.864C8.69425 19.4827 8.84358 19.9413 9.14225 20.24C9.46225 20.5173 10.0383 20.7627 10.8703 20.976C11.0836 21.04 11.2436 21.1147 11.3503 21.2C11.4783 21.2853 11.5423 21.424 11.5423 21.616C11.5423 21.7653 11.4889 21.8827 11.3823 21.968C11.2969 22.0533 11.1583 22.096 10.9663 22.096C10.4969 22.096 9.97425 22.0747 9.39825 22.032C8.82225 22.0107 8.25692 21.9893 7.70225 21.968C7.14758 21.9467 6.65692 21.936 6.23025 21.936C5.78225 21.936 5.29158 21.9467 4.75825 21.968C4.22492 21.9893 3.68092 22.0107 3.12625 22.032C2.57158 22.0747 2.04892 22.096 1.55825 22.096ZM33.8225 22.608C33.5452 22.608 33.0972 22.4373 32.4785 22.096C31.8598 21.776 31.2198 21.2 30.5585 20.368C30.0465 19.8347 29.5132 19.2587 28.9585 18.64C28.4038 18.0213 27.8172 17.3813 27.1985 16.72C26.5798 16.0587 25.9505 15.3867 25.3105 14.704C24.6918 14.0213 24.0732 13.3493 23.4545 12.688C22.8358 12.0053 22.2172 11.3333 21.5985 10.672C20.9798 10.0107 20.3932 9.37067 19.8385 8.752C19.2838 8.13333 18.7505 7.55733 18.2385 7.024C18.1958 6.93867 18.1212 6.864 18.0145 6.8C17.9292 6.71467 17.8652 6.672 17.8225 6.672C17.7372 6.672 17.6732 6.74667 17.6305 6.896C17.6092 7.04533 17.5985 7.17333 17.5985 7.28C17.5772 8.26133 17.5772 9.41333 17.5985 10.736C17.6198 12.0587 17.6412 13.4027 17.6625 14.768C17.7052 16.112 17.7265 17.3387 17.7265 18.448C17.7265 19.1307 17.9398 19.6747 18.3665 20.08C18.7932 20.464 19.4225 20.7627 20.2545 20.976C20.4892 21.0187 20.6918 21.0933 20.8625 21.2C21.0545 21.2853 21.1505 21.424 21.1505 21.616C21.1505 21.7653 21.0652 21.8827 20.8945 21.968C20.7238 22.0533 20.5425 22.096 20.3505 22.096C19.7745 22.096 19.3052 22.0747 18.9425 22.032C18.5798 22.0107 18.2385 22 17.9185 22C17.6198 21.9787 17.2465 21.968 16.7985 21.968C16.3292 21.968 15.8812 21.9787 15.4545 22C15.0492 22.0213 14.6972 22.0427 14.3985 22.064C14.1212 22.0853 13.9292 22.096 13.8225 22.096C13.6732 22.096 13.5025 22.064 13.3105 22C13.1398 21.9147 13.0545 21.7973 13.0545 21.648C13.0545 21.456 13.1398 21.3173 13.3105 21.232C13.4812 21.1467 13.6732 21.0613 13.8865 20.976C14.3985 20.784 14.7825 20.464 15.0385 20.016C15.3158 19.568 15.4758 19.0133 15.5185 18.352C15.6038 17.5627 15.6892 16.5173 15.7745 15.216C15.8812 13.9147 15.9772 12.4533 16.0625 10.832C16.1478 9.18933 16.1905 7.49333 16.1905 5.744C16.1905 4.63467 15.9025 3.83467 15.3265 3.344C14.7718 2.85333 14.0892 2.45867 13.2785 2.16C13.1078 2.11733 12.9158 2.04267 12.7025 1.936C12.4892 1.808 12.3825 1.648 12.3825 1.456C12.3825 1.264 12.4678 1.136 12.6385 1.072C12.8092 0.986665 13.0012 0.943998 13.2145 0.943998C13.5985 0.943998 14.0252 0.954666 14.4945 0.976C14.9852 0.997333 15.4972 1.01867 16.0305 1.04C16.5638 1.04 17.1185 1.05067 17.6945 1.072C18.2705 1.09333 18.8465 1.104 19.4225 1.104C19.5932 1.104 19.7212 1.136 19.8065 1.2C19.9132 1.264 20.0092 1.34933 20.0945 1.456C20.5638 1.98933 21.0652 2.56533 21.5985 3.184C22.1532 3.80267 22.7292 4.45333 23.3265 5.136C23.9238 5.79733 24.5318 6.48 25.1505 7.184C25.7692 7.86667 26.3772 8.56 26.9745 9.264C27.5932 9.968 28.1905 10.6507 28.7665 11.312C29.3638 11.9733 29.9398 12.6133 30.4945 13.232C31.0492 13.8507 31.5612 14.4267 32.0305 14.96C32.0945 15.0453 32.1692 15.1413 32.2545 15.248C32.3612 15.3333 32.4572 15.376 32.5425 15.376C32.7132 15.376 32.7985 15.216 32.7985 14.896C32.7985 14.2347 32.7985 13.4667 32.7985 12.592C32.8198 11.7173 32.8305 10.7893 32.8305 9.808C32.8305 8.82667 32.8198 7.856 32.7985 6.896C32.7985 5.936 32.7772 5.05067 32.7345 4.24C32.7132 3.664 32.4892 3.23733 32.0625 2.96C31.6572 2.66133 31.0918 2.416 30.3665 2.224C30.1318 2.18133 29.9292 2.10667 29.7585 2C29.5878 1.89333 29.5025 1.744 29.5025 1.552C29.5025 1.40267 29.5878 1.296 29.7585 1.232C29.9292 1.14666 30.1105 1.104 30.3025 1.104C30.7932 1.104 31.2092 1.11467 31.5505 1.136C31.8918 1.136 32.2012 1.136 32.4785 1.136C32.7558 1.136 33.0652 1.136 33.4065 1.136C33.8332 1.136 34.1958 1.136 34.4945 1.136C34.7932 1.11467 35.1132 1.09333 35.4545 1.072C35.8172 1.05067 36.2758 1.04 36.8305 1.04C37.0865 1.04 37.2785 1.08267 37.4065 1.168C37.5558 1.25333 37.6305 1.37067 37.6305 1.52C37.6305 1.84 37.3532 2.05333 36.7985 2.16C36.0518 2.30933 35.5185 2.52267 35.1985 2.8C34.8785 3.07733 34.7078 3.52533 34.6865 4.144C34.6865 4.912 34.6758 5.73333 34.6545 6.608C34.6545 7.48267 34.6332 8.37867 34.5905 9.296C34.5478 10.2133 34.5052 11.1307 34.4625 12.048C34.4412 12.944 34.4198 13.808 34.3985 14.64C34.3772 15.472 34.3665 16.24 34.3665 16.944C34.3665 17.4347 34.3985 17.9787 34.4625 18.576C34.5265 19.152 34.5798 19.6853 34.6225 20.176C34.6865 20.6453 34.7185 20.976 34.7185 21.168C34.7185 21.7013 34.6332 22.0747 34.4625 22.288C34.3132 22.5013 34.0998 22.608 33.8225 22.608ZM45.4255 22L37.9695 5.2H40.3375L47.1855 20.784H46.0655L53.0095 5.2H55.2495L47.7615 22H45.4255ZM64.8285 22.16C63.2072 22.16 61.7458 21.7973 60.4445 21.072C59.1645 20.3253 58.1512 19.312 57.4045 18.032C56.6578 16.7307 56.2845 15.248 56.2845 13.584C56.2845 11.8987 56.6578 10.416 57.4045 9.136C58.1512 7.856 59.1645 6.85333 60.4445 6.128C61.7245 5.40267 63.1858 5.04 64.8285 5.04C66.4925 5.04 67.9645 5.40267 69.2445 6.128C70.5458 6.85333 71.5592 7.856 72.2845 9.136C73.0312 10.416 73.4045 11.8987 73.4045 13.584C73.4045 15.248 73.0312 16.7307 72.2845 18.032C71.5592 19.312 70.5458 20.3253 69.2445 21.072C67.9432 21.7973 66.4712 22.16 64.8285 22.16ZM64.8285 20.144C66.0445 20.144 67.1218 19.8773 68.0605 19.344C68.9992 18.7893 69.7352 18.0213 70.2685 17.04C70.8232 16.0373 71.1005 14.8853 71.1005 13.584C71.1005 12.2613 70.8232 11.1093 70.2685 10.128C69.7352 9.14667 68.9992 8.38933 68.0605 7.856C67.1218 7.30133 66.0552 7.024 64.8605 7.024C63.6658 7.024 62.5992 7.30133 61.6605 7.856C60.7218 8.38933 59.9752 9.14667 59.4205 10.128C58.8658 11.1093 58.5885 12.2613 58.5885 13.584C58.5885 14.8853 58.8658 16.0373 59.4205 17.04C59.9752 18.0213 60.7218 18.7893 61.6605 19.344C62.5992 19.8773 63.6552 20.144 64.8285 20.144ZM85.211 28.368C83.675 28.368 82.203 28.144 80.795 27.696C79.387 27.248 78.2457 26.608 77.371 25.776L78.523 24.048C79.3123 24.752 80.283 25.3067 81.435 25.712C82.6083 26.1387 83.8457 26.352 85.147 26.352C87.2803 26.352 88.8483 25.8507 89.851 24.848C90.8537 23.8667 91.355 22.3307 91.355 20.24V16.048L91.675 13.168L91.451 10.288V5.2H93.627V19.952C93.627 22.8533 92.9123 24.976 91.483 26.32C90.075 27.6853 87.9843 28.368 85.211 28.368ZM84.795 21.36C83.195 21.36 81.755 21.0187 80.475 20.336C79.195 19.632 78.1817 18.6613 77.435 17.424C76.7097 16.1867 76.347 14.768 76.347 13.168C76.347 11.568 76.7097 10.16 77.435 8.944C78.1817 7.70667 79.195 6.74667 80.475 6.064C81.755 5.38133 83.195 5.04 84.795 5.04C86.2883 5.04 87.6323 5.34933 88.827 5.968C90.0217 6.58667 90.971 7.504 91.675 8.72C92.379 9.936 92.731 11.4187 92.731 13.168C92.731 14.9173 92.379 16.4 91.675 17.616C90.971 18.832 90.0217 19.76 88.827 20.4C87.6323 21.04 86.2883 21.36 84.795 21.36ZM85.019 19.344C86.2563 19.344 87.355 19.088 88.315 18.576C89.275 18.0427 90.0323 17.3173 90.587 16.4C91.1417 15.4613 91.419 14.384 91.419 13.168C91.419 11.952 91.1417 10.8853 90.587 9.968C90.0323 9.05067 89.275 8.336 88.315 7.824C87.355 7.29067 86.2563 7.024 85.019 7.024C83.803 7.024 82.7043 7.29067 81.723 7.824C80.763 8.336 80.0057 9.05067 79.451 9.968C78.9177 10.8853 78.651 11.952 78.651 13.168C78.651 14.384 78.9177 15.4613 79.451 16.4C80.0057 17.3173 80.763 18.0427 81.723 18.576C82.7043 19.088 83.803 19.344 85.019 19.344ZM106.893 22.16C105.464 22.16 104.216 21.8933 103.149 21.36C102.083 20.8267 101.251 20.0267 100.653 18.96C100.077 17.8933 99.7893 16.56 99.7893 14.96V5.2H102.061V14.704C102.061 16.496 102.499 17.8507 103.373 18.768C104.269 19.664 105.517 20.112 107.117 20.112C108.291 20.112 109.304 19.8773 110.157 19.408C111.032 18.9173 111.693 18.2133 112.141 17.296C112.611 16.3787 112.845 15.28 112.845 14V5.2H115.117V22H112.941V17.392L113.293 18.224C112.76 19.4613 111.928 20.432 110.797 21.136C109.688 21.8187 108.387 22.16 106.893 22.16ZM128.585 22.16C126.836 22.16 125.3 21.7973 123.977 21.072C122.655 20.3253 121.62 19.312 120.873 18.032C120.127 16.7307 119.753 15.248 119.753 13.584C119.753 11.92 120.105 10.448 120.809 9.168C121.535 7.888 122.516 6.88533 123.753 6.16C125.012 5.41333 126.42 5.04 127.977 5.04C129.556 5.04 130.953 5.40267 132.169 6.128C133.407 6.832 134.377 7.83467 135.081 9.136C135.785 10.416 136.137 11.8987 136.137 13.584C136.137 13.6907 136.127 13.808 136.105 13.936C136.105 14.0427 136.105 14.16 136.105 14.288H121.481V12.592H134.889L133.993 13.264C133.993 12.048 133.727 10.9707 133.193 10.032C132.681 9.072 131.977 8.32533 131.081 7.792C130.185 7.25867 129.151 6.992 127.977 6.992C126.825 6.992 125.791 7.25867 124.873 7.792C123.956 8.32533 123.241 9.072 122.729 10.032C122.217 10.992 121.961 12.0907 121.961 13.328V13.68C121.961 14.96 122.239 16.0907 122.793 17.072C123.369 18.032 124.159 18.7893 125.161 19.344C126.185 19.8773 127.348 20.144 128.649 20.144C129.673 20.144 130.623 19.9627 131.497 19.6C132.393 19.2373 133.161 18.6827 133.801 17.936L135.081 19.408C134.335 20.304 133.396 20.9867 132.265 21.456C131.156 21.9253 129.929 22.16 128.585 22.16Z" fill="#2B2B2B"/>
</svg>
